<?xml version="1.0" encoding="iso-8859-1"?>
<!-- Generator: Adobe Illustrator 19.0.0, SVG Export Plug-In . SVG Version: 6.00 Build 0)  -->
<svg version="1.1" id="Layer_1" xmlns="http://www.w3.org/2000/svg" xmlns:xlink="http://www.w3.org/1999/xlink" x="0px" y="0px"
	 viewBox="0 0 511.999 511.999" style="enable-background:new 0 0 511.999 511.999;" xml:space="preserve">
<path style="fill:#CAF893;" d="M245.723,160.83c30.075,82.631,11.435,171.114-41.241,234.002
	C123.705,380.518,52.55,324.717,22.474,242.086C-7.601,159.453,11.039,70.971,63.717,8.084
	C144.493,22.398,215.647,78.199,245.723,160.83z M498.251,207.769c-55.682-14.868-117.554-0.466-161.237,43.217
	s-58.086,105.555-43.217,161.237c55.682,14.868,117.554,0.466,161.237-43.217S513.12,263.451,498.251,207.769z"/>
<path style="fill:#AEEF66;" d="M455.033,369.006c-38.087,38.087-90.002,53.908-139.585,47.482
	c35.275-4.566,69.372-20.385,96.469-47.482c39.565-39.565,55.11-94.051,46.643-145.343c-0.882-5.339-3.936-19.682-4.119-21.543
	c14.736-0.055,29.477,1.822,43.809,5.648C513.119,263.451,498.717,325.323,455.033,369.006z M63.717,8.084
	c-2.537,3.029-4.994,6.119-7.372,9.263c65.536,22.494,120.718,73.302,146.262,143.483c23.833,65.481,17.068,134.632-12.978,191.813
	l16.976,39.61c51.048-62.714,68.785-149.915,39.118-231.424C215.647,78.199,144.493,22.398,63.717,8.084z"/>
<path d="M214.99,218.12l-40.705,77.266c-1.438,2.728-4.235,4.318-7.156,4.318c-1.021,0-2.057-0.194-3.055-0.603l-80.85-33.027
	c-4.134-1.688-6.115-6.408-4.427-10.541c1.688-4.133,6.408-6.116,10.542-4.426l74.058,30.252l37.285-70.776
	c2.081-3.952,6.971-5.466,10.921-3.385C215.554,209.281,217.071,214.17,214.99,218.12z M142.647,247.985
	c1.195,3.283,4.295,5.322,7.598,5.322c0.918,0,1.852-0.157,2.765-0.489c4.196-1.527,6.36-6.167,4.832-10.362l-14.808-40.682
	l36.392-69.08c2.08-3.95,0.565-8.84-3.385-10.92c-3.95-2.08-8.839-0.565-10.921,3.385l-29.554,56.1L98.813,80.286
	c-1.528-4.196-6.168-6.361-10.362-4.832c-4.196,1.527-6.36,6.167-4.832,10.362l36.753,100.972L61.67,162.809
	c-4.135-1.688-8.854,0.293-10.542,4.426c-1.688,4.133,0.293,8.853,4.427,10.541l72.285,29.528L142.647,247.985z M464.629,241.393
	c-3.157-3.157-8.276-3.157-11.433,0l-46.121,46.118l-1.953-40.241c-0.217-4.459-3.997-7.898-8.467-7.682
	c-4.459,0.217-7.9,4.008-7.683,8.467l2.665,54.894l-16.509,16.509c-3.157,3.157-3.157,8.276,0,11.432
	c1.578,1.578,3.648,2.368,5.717,2.368s4.138-0.789,5.717-2.368l16.51-16.508l54.897,2.665c4.457,0.216,8.25-3.224,8.467-7.682
	c0.217-4.46-3.223-8.25-7.683-8.467l-40.243-1.953l46.121-46.118C467.787,249.669,467.787,244.55,464.629,241.393z M414.021,349.882
	l-55.208-2.68l-2.68-55.204c-0.217-4.459-4.007-7.889-8.467-7.682c-4.459,0.217-7.9,4.008-7.683,8.467l3.035,62.531
	c0.202,4.156,3.527,7.481,7.683,7.682l62.535,3.035c0.134,0.006,0.266,0.01,0.399,0.01c4.285,0,7.858-3.366,8.068-7.692
	C421.921,353.89,418.48,350.099,414.021,349.882z M506.431,294.909c-7.776,30.109-23.571,57.708-45.679,79.814
	c-22.107,22.107-49.708,37.901-79.818,45.676c-27.663,7.143-56.793,7.412-84.557,0.814L241.58,476.2v27.715
	c0,4.465-3.62,8.084-8.084,8.084c-4.465,0-8.084-3.62-8.084-8.084v-29.619l-26.504-72.275
	c-40.173-7.835-77.986-25.659-109.601-51.702c-33.695-27.755-59.439-64.224-74.451-105.467
	C-0.157,203.611-3.879,159.125,4.091,116.206C11.826,74.552,30.294,35.369,57.498,2.894c1.858-2.218,4.758-3.275,7.609-2.769
	c41.716,7.391,81.05,25.536,113.752,52.474c33.695,27.756,59.439,64.224,74.451,105.468c15.012,41.241,18.734,85.727,10.764,128.646
	c-7.421,39.963-24.722,77.653-50.138,109.325l22.786,62.135l48.134-48.303c-6.656-27.833-6.407-57.045,0.758-84.785
	c7.776-30.109,23.571-57.708,45.679-79.814c22.107-22.105,49.708-37.901,79.818-45.677c29.222-7.545,60.076-7.42,89.231,0.365
	c2.795,0.746,4.979,2.93,5.725,5.725C513.851,234.837,513.977,265.691,506.431,294.909z M207.346,378.07
	c45.117-61.506,57.023-142.349,30.768-214.475C210.717,88.326,145.377,32.493,66.908,16.913
	c-50.094,62.371-64.258,147.14-36.86,222.408c26.35,72.392,87.796,126.806,162.265,144.72l-19.372-52.825
	c-1.537-4.192,0.615-8.835,4.807-10.374c4.192-1.54,8.837,0.616,10.374,4.806L207.346,378.07z M491.594,214.43
	c-53.362-12.554-110.012,3.419-148.868,42.272c-36.575,36.573-52.875,88.917-44.19,139.439l27.186-27.28
	c3.152-3.164,8.271-3.172,11.433-0.021c3.163,3.151,3.172,8.27,0.021,11.432l-27.137,27.232c8.873,1.516,17.813,2.261,26.703,2.263
	c41.675,0.002,82.467-16.367,112.58-46.478C488.174,324.437,504.149,267.792,491.594,214.43z"/>
<g>
</g>
<g>
</g>
<g>
</g>
<g>
</g>
<g>
</g>
<g>
</g>
<g>
</g>
<g>
</g>
<g>
</g>
<g>
</g>
<g>
</g>
<g>
</g>
<g>
</g>
<g>
</g>
<g>
</g>
</svg>
