<svg id="talk" xmlns="http://www.w3.org/2000/svg" viewBox="0 0 48 48"><defs><style>.cls-1{fill:#4891d3;}.cls-2{fill:#f9e109;}.cls-3{fill:#192835;}.cls-4{fill:#2d71ba;}.cls-5{fill:#fbbc04;}</style></defs><title>talk</title><path class="cls-1" d="M23,16v3a6.93,6.93,0,0,1-3.85,6.24c-.24.12-.49.23-.74.33a5.31,5.31,0,0,1-.68.2,5.59,5.59,0,0,1-.56.12c-.21,0-.42.06-.63.07a7.36,7.36,0,0,1-1.15,0l-.62-.08-.4-.08a6.41,6.41,0,0,1-.78-.23c-.25-.1-.5-.21-.74-.33h0A6.94,6.94,0,0,1,9,19V16a7,7,0,1,1,14,0Z"/><path class="cls-1" d="M27,36v3H5V36a9,9,0,0,1,7.24-8.83l.41.18.26.1.42.14a11.51,11.51,0,0,0,1.26.3,8.46,8.46,0,0,0,.88.09h0A4,4,0,0,0,16,28a4,4,0,0,0,.49,0h0a8.46,8.46,0,0,0,.88-.09,10.51,10.51,0,0,0,1.26-.3l.42-.14c.23-.08.45-.18.67-.28A9,9,0,0,1,27,36Z"/><path class="cls-2" d="M43,16a7,7,0,0,1-7,7H28.41l.64-.63a1,1,0,0,0,0-1.41A7,7,0,0,1,34,9h2A7,7,0,0,1,43,16Z"/><path class="cls-3" d="M19,20H13a1,1,0,0,0-1,1,4,4,0,0,0,8,0A1,1,0,0,0,19,20Zm-3,3a2,2,0,0,1-1.73-1h3.46A2,2,0,0,1,16,23Z"/><path class="cls-4" d="M17.73,22a2,2,0,0,1-3.46,0Z"/><path class="cls-3" d="M22.36,9.63A9,9,0,0,0,7,16v3a9,9,0,0,0,4.93,8l.31.15.41.18.26.1.42.14a11.51,11.51,0,0,0,1.26.3c.29,0,.59.07.88.09h0a1,1,0,0,0,.25,0h.48a1,1,0,0,0,.25,0h0c.29,0,.59-.05.88-.09a10.51,10.51,0,0,0,1.26-.3l.42-.14c.23-.08.45-.18.67-.28l.3-.15A8.95,8.95,0,0,0,25,19V16A8.94,8.94,0,0,0,22.36,9.63ZM23,19a6.93,6.93,0,0,1-3.85,6.24c-.24.12-.49.23-.74.33a5.31,5.31,0,0,1-.68.2,5.59,5.59,0,0,1-.56.12c-.21,0-.42.06-.63.07a7.36,7.36,0,0,1-1.15,0l-.62-.08-.4-.08a6.41,6.41,0,0,1-.78-.23c-.25-.1-.5-.21-.74-.33h0A6.94,6.94,0,0,1,9,19V16a7,7,0,1,1,14,0Z"/><path class="cls-3" d="M22,25.74a11.42,11.42,0,0,0-2.19-.6,1,1,0,0,0-.62.1c-.24.12-.49.23-.74.33a5.31,5.31,0,0,1-.68.2,5.59,5.59,0,0,1-.56.12c-.21,0-.42.06-.63.07a7.36,7.36,0,0,1-1.15,0l-.62-.08-.4-.08a6.41,6.41,0,0,1-.78-.23c-.25-.1-.5-.21-.74-.33h0a1,1,0,0,0-.59-.09,11.42,11.42,0,0,0-2.19.6A10.91,10.91,0,0,0,3,36v4a1,1,0,0,0,1,1H28a1,1,0,0,0,1-1V36A10.91,10.91,0,0,0,22,25.74ZM27,39H5V36a9,9,0,0,1,7.24-8.83l.41.18.26.1.42.14a11.51,11.51,0,0,0,1.26.3c.29,0,.59.07.88.09h0a1,1,0,0,0,.25,0h.48a1,1,0,0,0,.25,0h0c.29,0,.59-.05.88-.09a10.51,10.51,0,0,0,1.26-.3l.42-.14c.23-.08.45-.18.67-.28A9,9,0,0,1,27,36Z"/><path class="cls-3" d="M36,7H34a9,9,0,0,0-7,14.62l-1.68,1.67a1,1,0,0,0-.21,1.09A1,1,0,0,0,26,25H36A9,9,0,0,0,36,7Zm5,14A7,7,0,0,1,36,23H28.41l.64-.63a1,1,0,0,0,0-1.41A7,7,0,0,1,34,9h2a7,7,0,0,1,5,12Z"/><path class="cls-5" d="M39,15H31a1,1,0,0,1,0-2h8a1,1,0,0,1,0,2Z"/><path class="cls-5" d="M39,19H31a1,1,0,0,1,0-2h8a1,1,0,0,1,0,2Z"/></svg>