<?xml version="1.0" encoding="utf-8"?>
<!-- Generator: Adobe Illustrator 22.0.0, SVG Export Plug-In . SVG Version: 6.00 Build 0)  -->
<svg version="1.1" xmlns="http://www.w3.org/2000/svg" xmlns:xlink="http://www.w3.org/1999/xlink" x="0px" y="0px"
	 viewBox="0 0 256 256" style="enable-background:new 0 0 256 256;" xml:space="preserve">
<style type="text/css">
	.st0{display:none;}
	.st1{display:inline;}
	.st2{fill:none;stroke:#6B1D1D;stroke-width:0.5;stroke-miterlimit:10;}
	.st3{fill:#3A312A;}
	.st4{fill:#87796F;}
	.st5{fill:#D5DE58;}
	.st6{fill:#695B51;}
	.st7{fill:#FCE8CB;}
	.st8{fill:#F16C7A;}
	.st9{fill:#8AC6DD;}
	.st10{fill:#DECAAD;}
	.st11{fill:#D6DF58;}
	.st12{fill-rule:evenodd;clip-rule:evenodd;fill:#FCE8CB;}
	.st13{fill:#F5978A;}
	.st14{fill:#D7E057;}
	.st15{fill-rule:evenodd;clip-rule:evenodd;fill:#87796F;}
	.st16{fill:#6CA8BF;}
	.st17{fill:#B9C239;}
	.st18{fill:#D34E5C;}
	.st19{fill:#FAE6CA;}
	.st20{fill:#F8E4C8;}
	.st21{fill:#8AC5DC;}
	.st22{fill:#EF6D7A;}
	.st23{fill:#EB6E7A;}
	.st24{fill:#89C4DB;}
	.st25{fill-rule:evenodd;clip-rule:evenodd;fill:#F16C7A;}
	.st26{fill:#F7E3C7;}
	.st27{fill:#F6E2C6;}
	.st28{fill:#ED6E7A;}
	.st29{fill:#8AC3DA;}
	.st30{fill:#D5DC57;}
	.st31{fill-rule:evenodd;clip-rule:evenodd;fill:#D7E057;}
	.st32{fill-rule:evenodd;clip-rule:evenodd;fill:#F8E4C8;}
	.st33{fill:#D4DB56;}
	.st34{fill:#F59689;}
	.st35{fill:#DDC9AC;}
	.st36{fill:#D24E5C;}
	.st37{fill:#6A5C52;}
	.st38{fill:#6CA6BE;}
	.st39{fill:#B8C136;}
	.st40{fill-rule:evenodd;clip-rule:evenodd;fill:#FAE6CA;}
</style>
<g id="Layer_2" class="st0">
	<g class="st1">
		<g>
			<line class="st2" x1="0" y1="4.829" x2="256" y2="4.829"/>
			<line class="st2" x1="0" y1="16.56" x2="256" y2="16.56"/>
			<line class="st2" x1="0" y1="28.29" x2="256" y2="28.29"/>
			<line class="st2" x1="0" y1="40.021" x2="256" y2="40.021"/>
			<line class="st2" x1="0" y1="51.751" x2="256" y2="51.751"/>
			<line class="st2" x1="0" y1="63.482" x2="256" y2="63.482"/>
			<line class="st2" x1="0" y1="75.213" x2="256" y2="75.213"/>
			<line class="st2" x1="0" y1="86.943" x2="256" y2="86.943"/>
			<line class="st2" x1="0" y1="98.674" x2="256" y2="98.674"/>
			<line class="st2" x1="0" y1="110.404" x2="256" y2="110.404"/>
			<line class="st2" x1="0" y1="122.135" x2="256" y2="122.135"/>
			<line class="st2" x1="0" y1="133.865" x2="256" y2="133.865"/>
			<line class="st2" x1="0" y1="145.596" x2="256" y2="145.596"/>
			<line class="st2" x1="0" y1="157.326" x2="256" y2="157.326"/>
			<line class="st2" x1="0" y1="169.057" x2="256" y2="169.057"/>
			<line class="st2" x1="0" y1="180.788" x2="256" y2="180.788"/>
			<line class="st2" x1="0" y1="192.518" x2="256" y2="192.518"/>
			<line class="st2" x1="0" y1="204.249" x2="256" y2="204.249"/>
			<line class="st2" x1="0" y1="215.979" x2="256" y2="215.979"/>
			<line class="st2" x1="0" y1="227.71" x2="256" y2="227.71"/>
			<line class="st2" x1="0" y1="239.44" x2="256" y2="239.44"/>
			<line class="st2" x1="0" y1="251.171" x2="256" y2="251.171"/>
		</g>
		<g>
			<line class="st2" x1="251.171" y1="0" x2="251.171" y2="256"/>
			<line class="st2" x1="239.44" y1="0" x2="239.44" y2="256"/>
			<line class="st2" x1="227.71" y1="0" x2="227.71" y2="256"/>
			<line class="st2" x1="215.979" y1="0" x2="215.979" y2="256"/>
			<line class="st2" x1="204.249" y1="0" x2="204.249" y2="256"/>
			<line class="st2" x1="192.518" y1="0" x2="192.518" y2="256"/>
			<line class="st2" x1="180.787" y1="0" x2="180.787" y2="256"/>
			<line class="st2" x1="169.057" y1="0" x2="169.057" y2="256"/>
			<line class="st2" x1="157.326" y1="0" x2="157.326" y2="256"/>
			<line class="st2" x1="145.596" y1="0" x2="145.596" y2="256"/>
			<line class="st2" x1="133.865" y1="0" x2="133.865" y2="256"/>
			<line class="st2" x1="122.135" y1="0" x2="122.135" y2="256"/>
			<line class="st2" x1="110.404" y1="0" x2="110.404" y2="256"/>
			<line class="st2" x1="98.674" y1="0" x2="98.674" y2="256"/>
			<line class="st2" x1="86.943" y1="0" x2="86.943" y2="256"/>
			<line class="st2" x1="75.212" y1="0" x2="75.212" y2="256"/>
			<line class="st2" x1="63.482" y1="0" x2="63.482" y2="256"/>
			<line class="st2" x1="51.751" y1="0" x2="51.751" y2="256"/>
			<line class="st2" x1="40.021" y1="0" x2="40.021" y2="256"/>
			<line class="st2" x1="28.29" y1="0" x2="28.29" y2="256"/>
			<line class="st2" x1="16.56" y1="0" x2="16.56" y2="256"/>
			<line class="st2" x1="4.829" y1="0" x2="4.829" y2="256"/>
		</g>
	</g>
</g>
<g id="Layer_1">
	<g>
		<path class="st14" d="M53.469,26.22c0,0,3.408,12.659,13.222,13.246c0,0-13.1,4.525-13.321,14.202c0,0-2.579-13.572-12.925-14.059
			C40.445,39.609,52.496,37.784,53.469,26.22z"/>
		<path class="st3" d="M53.369,55.167c-0.713,0-1.335-0.506-1.472-1.217c-0.024-0.124-2.495-12.417-11.523-12.842
			c-0.77-0.037-1.388-0.651-1.428-1.421c-0.04-0.771,0.511-1.445,1.273-1.561c0.441-0.069,10.894-1.817,11.754-12.033
			c0.061-0.725,0.634-1.301,1.359-1.367c0.718-0.067,1.393,0.398,1.584,1.101c0.032,0.116,3.259,11.626,11.864,12.141
			c0.714,0.043,1.297,0.584,1.396,1.292c0.098,0.708-0.319,1.388-0.994,1.623c-0.121,0.042-12.118,4.311-12.313,12.819
			c-0.018,0.767-0.61,1.396-1.375,1.46C53.453,55.166,53.411,55.167,53.369,55.167z M45.628,39.438
			c3.878,1.969,6.231,5.746,7.587,8.877c2.027-4.021,5.942-6.787,8.949-8.427c-4.135-1.842-6.783-5.651-8.334-8.723
			C52.037,35.525,48.559,38.033,45.628,39.438z"/>
		<path class="st14" d="M31.771,43.2c0,0,2.411,8.954,9.352,9.369c0,0-9.266,3.201-9.422,10.045c0,0-1.824-9.6-9.142-9.944
			C22.558,52.671,31.082,51.38,31.771,43.2z"/>
		<path class="st3" d="M31.7,64.115c-0.714,0-1.337-0.507-1.473-1.22c-0.016-0.082-1.704-8.442-7.739-8.726
			c-0.771-0.037-1.388-0.651-1.428-1.421c-0.04-0.771,0.511-1.445,1.273-1.561c0.296-0.047,7.364-1.243,7.943-8.114
			c0.061-0.726,0.635-1.303,1.36-1.368c0.729-0.067,1.392,0.399,1.582,1.101l0,0c0.021,0.079,2.228,7.92,7.994,8.265
			c0.714,0.043,1.299,0.584,1.396,1.293c0.098,0.709-0.32,1.388-0.996,1.622c-0.081,0.028-8.282,2.952-8.412,8.662
			c-0.018,0.767-0.611,1.397-1.376,1.461C31.782,64.114,31.741,64.115,31.7,64.115z M27.181,52.587
			c2.107,1.333,3.523,3.395,4.447,5.28c1.376-2.232,3.515-3.872,5.365-4.972c-2.287-1.27-3.884-3.35-4.941-5.224
			C30.878,49.958,29.036,51.546,27.181,52.587z"/>
		<path class="st14" d="M31.771,16.543c0,0,2.411,8.954,9.352,9.37c0,0-9.266,3.201-9.422,10.045c0,0-1.824-9.6-9.142-9.944
			C22.558,26.014,31.082,24.722,31.771,16.543z"/>
		<path class="st3" d="M31.7,37.458c-0.714,0-1.337-0.507-1.473-1.22c-0.016-0.082-1.704-8.442-7.739-8.726
			c-0.771-0.037-1.388-0.651-1.428-1.421c-0.04-0.77,0.511-1.445,1.273-1.56c0.296-0.047,7.364-1.243,7.943-8.114
			c0.061-0.726,0.635-1.303,1.36-1.368c0.729-0.068,1.392,0.399,1.582,1.102l0,0c0.021,0.079,2.228,7.92,7.994,8.265
			c0.714,0.043,1.299,0.584,1.396,1.293c0.098,0.709-0.32,1.388-0.996,1.622c-0.081,0.028-8.282,2.952-8.412,8.662
			c-0.018,0.767-0.611,1.397-1.376,1.461C31.782,37.457,31.741,37.458,31.7,37.458z M27.181,25.93
			c2.107,1.332,3.523,3.394,4.447,5.28c1.376-2.232,3.515-3.872,5.365-4.972c-2.287-1.27-3.884-3.35-4.941-5.224
			C30.878,23.3,29.036,24.889,27.181,25.93z"/>
		<path class="st3" d="M133.558,241.5c-13.328,0-25.747-11.975-34.968-33.718C89.541,186.447,84.558,158.113,84.558,128
			s4.983-58.447,14.032-79.782c9.222-21.744,21.64-33.718,34.968-33.718s25.747,11.975,34.969,33.718
			c9.048,21.335,14.031,49.669,14.031,79.782c0,14.49-1.153,28.606-3.427,41.957c-0.128,0.755-0.86,1.295-1.631,1.242
			c-0.828,0-1.471-0.671-1.471-1.499c0-0.293,0.088-0.567,0.238-0.798c2.184-13.023,3.291-26.78,3.291-40.902
			c0-60.93-20.636-110.5-46-110.5s-46,49.57-46,110.5s20.636,110.5,46,110.5c16.47,0,31.812-21.585,40.04-56.332
			c0.191-0.807,0.999-1.306,1.805-1.114c0.806,0.191,1.305,0.999,1.114,1.805C167.953,219.03,151.492,241.5,133.558,241.5z"/>
		<path class="st3" d="M197.803,198.996c-3.949,0-8.167-0.272-12.636-0.822c-23.001-2.831-50.03-12.683-76.109-27.739
			c-26.079-15.056-48.124-33.539-62.077-52.042c-14.22-18.858-18.38-35.601-11.716-47.143
			c13.102-22.695,64.928-17.597,117.983,11.604c0.726,0.399,0.99,1.312,0.591,2.037c-0.399,0.726-1.312,0.991-2.037,0.591
			C126.78,71.711,101.164,62.869,79.67,60.584c-21.133-2.249-35.981,2.073-41.808,12.166c-6.023,10.433-1.935,26.002,11.514,43.836
			c13.716,18.19,35.444,36.391,61.182,51.251c52.767,30.465,106.015,37.379,118.696,15.413
			c12.049-20.871-17.045-60.944-66.237-91.231c-0.705-0.435-0.925-1.358-0.491-2.064c0.435-0.705,1.358-0.924,2.064-0.491
			c24.273,14.945,44.571,32.82,57.156,50.334c12.893,17.943,16.482,33.907,10.106,44.952
			C226.458,194.092,214.569,198.996,197.803,198.996z"/>
		<path class="st3" d="M69.314,198.996c-16.768,0-28.655-4.903-34.049-14.246c-6.664-11.542-2.503-28.285,11.716-47.143
			c13.953-18.503,35.998-36.986,62.077-52.042c26.079-15.057,53.108-24.908,76.109-27.739c23.443-2.886,40.021,1.882,46.685,13.424
			c6.664,11.543,2.503,28.285-11.717,47.143c-13.953,18.503-35.999,36.986-62.077,52.042
			c-26.079,15.057-53.108,24.908-76.108,27.739C77.483,198.724,73.261,198.996,69.314,198.996z M197.806,59.91
			c-23.189,0-55.306,9.812-87.248,28.253c-25.738,14.86-47.466,33.061-61.182,51.251c-13.449,17.835-17.538,33.403-11.514,43.836
			c12.683,21.966,65.929,15.052,118.696-15.413c25.738-14.86,47.466-33.061,61.182-51.251
			c13.448-17.835,17.538-33.403,11.514-43.836C224.249,64.081,212.924,59.91,197.806,59.91z"/>
		<circle class="st7" cx="133.558" cy="128" r="27"/>
		<path class="st3" d="M133.558,156.5c-15.715,0-28.5-12.785-28.5-28.5s12.785-28.5,28.5-28.5s28.5,12.785,28.5,28.5
			S149.273,156.5,133.558,156.5z M133.558,102.5c-14.061,0-25.5,11.439-25.5,25.5s11.439,25.5,25.5,25.5
			c14.061,0,25.5-11.439,25.5-25.5S147.619,102.5,133.558,102.5z"/>
		<circle class="st9" cx="204.058" cy="58.5" r="12"/>
		<path class="st3" d="M204.058,72c-7.444,0-13.5-6.056-13.5-13.5s6.056-13.5,13.5-13.5c7.444,0,13.5,6.056,13.5,13.5
			S211.502,72,204.058,72z M204.058,48c-5.79,0-10.5,4.71-10.5,10.5s4.71,10.5,10.5,10.5c5.79,0,10.5-4.71,10.5-10.5
			S209.848,48,204.058,48z"/>
		<circle class="st8" cx="198.058" cy="198.5" r="12"/>
		<path class="st3" d="M198.058,212c-7.444,0-13.5-6.056-13.5-13.5s6.056-13.5,13.5-13.5c7.444,0,13.5,6.056,13.5,13.5
			S205.502,212,198.058,212z M198.058,188c-5.79,0-10.5,4.71-10.5,10.5s4.71,10.5,10.5,10.5c5.79,0,10.5-4.71,10.5-10.5
			S203.848,188,198.058,188z"/>
		<circle class="st14" cx="107.058" cy="219.5" r="12"/>
		<path class="st3" d="M107.058,233c-7.444,0-13.5-6.056-13.5-13.5s6.056-13.5,13.5-13.5c7.444,0,13.5,6.056,13.5,13.5
			S114.502,233,107.058,233z M107.058,209c-5.789,0-10.5,4.71-10.5,10.5s4.711,10.5,10.5,10.5c5.79,0,10.5-4.71,10.5-10.5
			S112.848,209,107.058,209z"/>
		<path class="st10" d="M159.058,128c0,14.06-11.44,25.5-25.5,25.5c-2.61,0-5.13-0.39-7.5-1.13c10.41-3.21,18-12.92,18-24.37
			s-7.59-21.16-18-24.37c2.37-0.74,4.89-1.13,7.5-1.13C147.618,102.5,159.058,113.94,159.058,128z"/>
	</g>
</g>
</svg>
