<?xml version="1.0" encoding="utf-8"?>
<!-- Generator: Adobe Illustrator 18.0.0, SVG Export Plug-In . SVG Version: 6.00 Build 0)  -->
<!DOCTYPE svg PUBLIC "-//W3C//DTD SVG 1.1//EN" "http://www.w3.org/Graphics/SVG/1.1/DTD/svg11.dtd">
<svg version="1.1" id="Icon_Set" xmlns="http://www.w3.org/2000/svg" xmlns:xlink="http://www.w3.org/1999/xlink" x="0px" y="0px"
	 viewBox="0 0 256 256" style="enable-background:new 0 0 256 256;" xml:space="preserve">
<style type="text/css">
	.st0{fill:#4C4372;}
	.st1{fill:#F1C48B;}
	.st2{fill:#FFFFFF;}
	.st3{fill:#A3D0F1;}
	.st4{fill:#7BACF1;}
	.st5{fill:#D4E7F8;}
	.st6{fill:#FD919E;}
	.st7{fill:#D3E6F7;}
	.st8{fill:#E8677D;}
	.st9{fill:#D3E6F8;}
</style>
<g>
	<g>
		<circle class="st1" cx="128" cy="128" r="104.245"/>
	</g>
	<g>
		<path class="st6" d="M126.865,167.296L94.4,174.73l7.434-32.465l79.241-79.241c3.324-3.325,8.714-3.325,12.039,0l12.992,12.992
			c3.324,3.324,3.324,8.714,0,12.039L126.865,167.296z"/>
	</g>
	<g>
		<polygon class="st2" points="126.865,167.296 101.834,142.265 94.4,174.73 		"/>
	</g>
	<g>
		<path class="st4" d="M206.106,76.016l-12.992-12.992c-3.325-3.325-8.714-3.325-12.039,0L169.56,74.54l25.031,25.031l11.516-11.516
			C209.431,84.73,209.431,79.34,206.106,76.016z"/>
	</g>
	<g>
		<path class="st0" d="M194.59,102.57c-0.796,0-1.559-0.316-2.122-0.879l-25.03-25.031c-1.171-1.171-1.171-3.071,0-4.242
			l11.515-11.516c2.175-2.175,5.066-3.372,8.141-3.372s5.966,1.197,8.141,3.372l12.992,12.992c2.175,2.174,3.373,5.065,3.373,8.141
			s-1.198,5.966-3.373,8.141l-11.516,11.516C196.149,102.254,195.386,102.57,194.59,102.57z M173.803,74.54l20.788,20.788
			l9.395-9.394c1.041-1.042,1.615-2.426,1.615-3.898s-0.574-2.857-1.615-3.898l-12.992-12.992c-1.042-1.041-2.426-1.614-3.898-1.614
			s-2.857,0.573-3.898,1.615L173.803,74.54z"/>
	</g>
	<g>
		<path class="st0" d="M94.4,177.73c-0.787,0-1.552-0.31-2.121-0.879c-0.73-0.73-1.034-1.784-0.803-2.791l7.434-32.464
			c0.244-1.064,1.046-1.912,2.095-2.213c1.048-0.303,2.179-0.011,2.951,0.761l25.031,25.03c0.772,0.772,1.064,1.902,0.762,2.951
			c-0.302,1.049-1.149,1.851-2.213,2.095l-32.465,7.434C94.847,177.705,94.623,177.73,94.4,177.73z M103.548,148.222l-5.156,22.517
			l22.517-5.156L103.548,148.222z"/>
	</g>
	<g>
		<path class="st0" d="M114.35,157.781c-0.768,0-1.536-0.293-2.121-0.879c-1.172-1.171-1.172-3.071,0-4.242l67.726-67.726
			c1.171-1.172,3.071-1.172,4.242,0c1.172,1.171,1.172,3.071,0,4.242l-67.726,67.726
			C115.885,157.488,115.117,157.781,114.35,157.781z"/>
	</g>
	<g>
		<polygon class="st0" points="94.4,174.73 111.249,170.872 98.258,157.881 		"/>
	</g>
	<g>
		<path class="st0" d="M94.4,177.73c-0.787,0-1.552-0.31-2.121-0.879c-0.73-0.73-1.034-1.784-0.803-2.791l7.434-32.464
			c0.126-0.55,0.404-1.053,0.803-1.452l79.241-79.242c2.174-2.175,5.066-3.372,8.141-3.372c3.075,0,5.966,1.197,8.141,3.372
			l12.992,12.992c2.175,2.174,3.373,5.065,3.373,8.141s-1.198,5.966-3.373,8.141l-79.241,79.241
			c-0.398,0.399-0.902,0.677-1.452,0.803l-32.465,7.434C94.847,177.705,94.623,177.73,94.4,177.73z M104.565,143.776l-6.174,26.962
			l26.962-6.174l78.631-78.631c1.041-1.042,1.615-2.426,1.615-3.898s-0.574-2.857-1.615-3.898l-12.992-12.992
			c-1.042-1.041-2.426-1.614-3.898-1.614s-2.857,0.573-3.898,1.615L104.565,143.776z"/>
	</g>
	<g>
		<path class="st0" d="M95,178H71c-1.657,0-3-1.343-3-3s1.343-3,3-3h24c1.657,0,3,1.343,3,3S96.657,178,95,178z"/>
	</g>
	<g>
		<path class="st0" d="M58,178H48c-1.657,0-3-1.343-3-3s1.343-3,3-3h10c1.657,0,3,1.343,3,3S59.657,178,58,178z"/>
	</g>
	<g>
		<path class="st0" d="M175,199H71c-1.657,0-3-1.343-3-3s1.343-3,3-3h104c1.657,0,3,1.343,3,3S176.657,199,175,199z"/>
	</g>
</g>
</svg>
