<?xml version="1.0" encoding="iso-8859-1"?>
<!-- Generator: Adobe Illustrator 19.0.1, SVG Export Plug-In . SVG Version: 6.00 Build 0)  -->
<svg version="1.1" xmlns="http://www.w3.org/2000/svg" xmlns:xlink="http://www.w3.org/1999/xlink" x="0px" y="0px"
	 viewBox="0 0 128 128" style="enable-background:new 0 0 128 128;" xml:space="preserve">
<g id="_x31_">
	<path style="fill:#303030;" d="M93.499,65.11c-1.906,33.144,4.526,36.395,4.526,36.395c11.593,11.259,23.861-12.568,23.861-12.568
		h5.796c-1.27,24.461-16.437,33.183-16.437,33.183c-35.137,13.836-37.717-21.29-37.717-21.29l6.313-79.688
		c-9.965,0-20.169,0.04-29.102,0.159l-2.382,36.077c-0.635,30.923-8.377,54.076-8.377,54.076
		c-5.797,19.03-20.328,13.876-20.328,13.876c-16.119-7.096-8.377-20.616-8.377-20.616C39.98,75.775,38.988,32.165,38.233,21.5
		c-5.32,0.119-9.568,0.278-12.109,0.476C9.687,23.245,3.851,39.975,3.851,39.975L0,38.706c0,0,3.216-25.77,20.963-32.192
		C38.63,0.092,128,2.312,128,2.312v18.99c0,0-13.816-0.119-31.404-0.159L93.499,65.11z"/>
</g>
<g id="Layer_1">
</g>
</svg>
