<?xml version="1.0" encoding="iso-8859-1"?>
<!-- Generator: Adobe Illustrator 19.0.1, SVG Export Plug-In . SVG Version: 6.00 Build 0)  -->
<svg version="1.1" xmlns="http://www.w3.org/2000/svg" xmlns:xlink="http://www.w3.org/1999/xlink" x="0px" y="0px"
	 viewBox="0 0 128 128" style="enable-background:new 0 0 128 128;" xml:space="preserve">
<g id="_x38_">
	<path style="fill:#303030;" d="M107.234,127.863H20.782c-3.978,0-7.494-2.237-9.171-5.84c-1.678-3.602-1.129-7.728,1.434-10.767
		l40.801-48.384l-40.43-46.068c-2.65-3.02-3.266-7.168-1.605-10.827s5.19-5.932,9.213-5.932h86.211
		c5.577,0,10.115,4.531,10.115,10.101v12.884h-11.697V11.726H24.514l40.233,45.844c2.619,2.981,2.663,7.352,0.1,10.389
		l-40.665,48.223h81.47v-11.304h11.697v12.884C117.35,123.331,112.812,127.863,107.234,127.863z"/>
</g>
<g id="Layer_1">
</g>
</svg>
