<?xml version="1.0" encoding="iso-8859-1"?>
<!-- Generator: Adobe Illustrator 19.0.0, SVG Export Plug-In . SVG Version: 6.00 Build 0)  -->
<svg xmlns="http://www.w3.org/2000/svg" xmlns:xlink="http://www.w3.org/1999/xlink" version="1.1" id="Layer_1" x="0px" y="0px" viewBox="0 0 512 512" style="enable-background:new 0 0 512 512;" xml:space="preserve">
<rect x="195.073" y="-31.974" transform="matrix(-0.7071 0.7071 -0.7071 -0.7071 618.0235 256.0058)" style="fill:#F2C07E;" width="121.836" height="575.947"/>
<path style="fill:#23CE9E;" d="M120.985,447.087L37.86,474.14l27.053-83.125L431.217,24.713c8.222-8.222,21.554-8.222,29.777,0  l26.295,26.295c8.222,8.222,8.222,21.554,0,29.777L120.985,447.087z"/>
<path style="fill:#19B783;" d="M469.291,33.011l-8.303-8.303c-8.224-8.224-21.553-8.214-29.767,0L64.913,391.016L37.86,474.14  l44.76-65.418L448.927,42.415C457.142,34.201,466.27,29.991,469.291,33.011z"/>
<path style="fill:#F2C07E;" d="M120.985,447.087l1.298-1.298c-4.23-12.651-11.391-24.533-21.465-34.608  c-10.074-10.074-21.957-17.235-34.608-21.465l-1.298,1.298l-9.936,30.535l-17.116,52.59l52.59-17.116L120.985,447.087z"/>
<g>
	<path style="fill:#F23488;" d="M452.007,116.066l35.286-35.286c8.214-8.214,8.214-21.553,0-29.767l-26.305-26.305   c-4.368-4.368-10.172-6.414-15.897-6.139c-1.338,0.059-2.676,0.255-4.003,0.581c-0.649,0.157-1.298,0.354-1.947,0.571   c-2.902,1.013-5.608,2.676-7.919,4.987l-35.286,35.286L452.007,116.066z"/>
	<path style="fill:#F23488;" d="M90.45,457.023c-2.606-8.037-7.103-15.603-13.487-21.987c-6.384-6.384-13.949-10.879-21.987-13.487   l-17.116,52.59L90.45,457.023z"/>
</g>
<path style="fill:#DB2A78;" d="M469.291,33.011l-8.303-8.303c-4.368-4.368-10.172-6.414-15.897-6.139  c-1.338,0.059-2.685,0.247-4.003,0.581c-0.649,0.157-1.298,0.354-1.947,0.571c-2.902,1.013-5.608,2.676-7.919,4.987l-35.286,35.286  l17.707,17.707l35.286-35.286C457.142,34.201,466.27,29.991,469.291,33.011z"/>
<path d="M509.279,409.983L402.442,303.146c-3.629-3.628-9.511-3.628-13.139,0c-3.628,3.628-3.628,9.511,0,13.138l100.268,100.268  l-73.012,73.012l-27.327-27.327l31.463-31.463c3.628-3.628,3.628-9.511,0-13.138c-3.629-3.628-9.511-3.628-13.139,0l-31.461,31.461  l-22.975-22.974l31.463-31.464c3.628-3.628,3.628-9.511,0-13.137c-3.629-3.628-9.511-3.628-13.139,0l-31.463,31.463l-22.975-22.975  l31.463-31.463c3.628-3.628,3.628-9.511,0-13.138c-3.629-3.628-9.511-3.628-13.139,0l-31.463,31.463l-22.975-22.975l31.463-31.463  c3.628-3.628,3.628-9.511,0-13.138c-3.629-3.628-9.511-3.628-13.139,0l-31.463,31.463l-13.649-13.649l73.012-73.012l34.936,34.937  c1.815,1.813,4.193,2.721,6.57,2.721s4.755-0.907,6.57-2.721c3.628-3.628,3.628-9.511,0-13.138l-34.937-34.937l111.753-111.753  l1.546,1.546c1.815,1.813,4.193,2.721,6.57,2.721c2.377,0,4.755-0.907,6.57-2.721c3.628-3.628,3.628-9.511,0-13.138l-1.546-1.546  l28.713-28.713c11.831-11.832,11.831-31.084,0-42.916l-26.296-26.296c-11.831-11.831-31.082-11.831-42.916,0l-28.712,28.712  l-1.547-1.547c-3.629-3.628-9.511-3.628-13.139,0c-3.628,3.628-3.628,9.511,0,13.138l1.547,1.547l-64.451,64.453  c-3.628,3.628-3.628,9.511,0,13.138c3.628,3.627,9.509,3.629,13.139,0l64.451-64.451l42.933,42.934L234.443,320.492  c-0.016,0.015-0.033,0.029-0.05,0.045c-0.016,0.016-0.028,0.033-0.045,0.05l-57.958,57.959c-3.628,3.628-3.628,9.511,0,13.137  c1.813,1.813,4.192,2.721,6.569,2.721s4.755-0.907,6.569-2.721l51.436-51.436l169.025,169.025c1.815,1.813,4.192,2.721,6.57,2.721  c2.377,0,4.755-0.907,6.57-2.721l86.151-86.151C512.907,419.493,512.907,413.611,509.279,409.983z M409.073,59.994l28.712-28.712  c4.588-4.588,12.052-4.587,16.639,0l26.296,26.295c4.587,4.587,4.587,12.051,0,16.639l-28.711,28.712L409.073,59.994z"/>
<path d="M151.796,403.138l-26.312,26.312c-4.64-9.116-10.694-17.433-18.097-24.837c-7.404-7.404-15.721-13.456-24.837-18.097  l220.443-220.442c3.628-3.628,3.628-9.511,0-13.138s-9.509-3.629-13.139,0L184.891,257.898l-12.345-12.344l31.464-31.463  c3.628-3.628,3.628-9.511,0-13.138c-3.627-3.628-9.509-3.628-13.138,0l-31.464,31.464l-22.976-22.975l31.465-31.464  c3.628-3.628,3.628-9.511,0-13.138c-3.628-3.628-9.511-3.628-13.138,0l-31.465,31.465l-22.976-22.974l31.466-31.466  c3.628-3.628,3.628-9.511,0-13.138c-3.628-3.628-9.511-3.628-13.138,0l-31.469,31.464l-22.976-22.975L95.67,105.75  c3.628-3.628,3.628-9.511,0-13.138c-3.628-3.628-9.511-3.628-13.138,0L51.065,124.08L22.429,95.447l73.012-73.012l146.457,146.447  c3.629,3.628,9.509,3.627,13.139,0c3.628-3.628,3.628-9.511,0-13.139L102.011,2.727c-3.629-3.628-9.511-3.627-13.138,0L2.723,88.878  C0.979,90.619,0,92.983,0,95.447s0.98,4.827,2.721,6.57l169.032,169.02L58.345,384.447c-1.036,1.036-1.812,2.301-2.266,3.694  l-27.053,83.125c-1.081,3.323-0.207,6.973,2.266,9.444c1.77,1.77,4.145,2.721,6.57,2.721c0.961,0,1.931-0.15,2.874-0.456  l83.125-27.053c1.394-0.453,2.658-1.23,3.694-2.266l37.381-37.381c3.628-3.628,3.628-9.511,0-13.137  C161.307,399.509,155.424,399.509,151.796,403.138z M110.317,440.79l-14.577,4.744c-3.114-6.285-7.231-12.087-12.208-17.064  c-4.977-4.978-10.78-9.096-17.065-12.208l4.744-14.577c8.527,3.911,16.255,9.284,23.038,16.068  C101.033,424.535,106.407,432.263,110.317,440.79z M60.64,434.167c3.536,2.014,6.805,4.49,9.755,7.44  c2.949,2.949,5.424,6.218,7.44,9.755l-25.491,8.295L60.64,434.167z"/>
<g>
</g>
<g>
</g>
<g>
</g>
<g>
</g>
<g>
</g>
<g>
</g>
<g>
</g>
<g>
</g>
<g>
</g>
<g>
</g>
<g>
</g>
<g>
</g>
<g>
</g>
<g>
</g>
<g>
</g>
</svg>
