<?xml version="1.0" encoding="UTF-8" standalone="no"?>
<!-- Generator: Adobe Illustrator 19.0.0, SVG Export Plug-In . SVG Version: 6.00 Build 0)  -->

<svg
   version="1.1"
   id="Layer_1"
   x="0px"
   y="0px"
   viewBox="0 0 512 512"
   style="enable-background:new 0 0 512 512;"
   xml:space="preserve"
   sodipodi:docname="Écrit.svg"
   inkscape:version="1.2.1 (9c6d41e410, 2022-07-14, custom)"
   xmlns:inkscape="http://www.inkscape.org/namespaces/inkscape"
   xmlns:sodipodi="http://sodipodi.sourceforge.net/DTD/sodipodi-0.dtd"
   xmlns="http://www.w3.org/2000/svg"
   xmlns:svg="http://www.w3.org/2000/svg"><defs
   id="defs83" /><sodipodi:namedview
   id="namedview81"
   pagecolor="#ffffff"
   bordercolor="#000000"
   borderopacity="0.25"
   inkscape:showpageshadow="2"
   inkscape:pageopacity="0.0"
   inkscape:pagecheckerboard="0"
   inkscape:deskcolor="#d1d1d1"
   showgrid="false"
   inkscape:zoom="1.40625"
   inkscape:cx="256"
   inkscape:cy="256.35556"
   inkscape:window-width="2560"
   inkscape:window-height="1440"
   inkscape:window-x="2560"
   inkscape:window-y="0"
   inkscape:window-maximized="1"
   inkscape:current-layer="Layer_1" />
<path
   style="fill:#FFEB99;"
   d="M18.609,490.429l40.914-71.219c-3.655,12.991-1.52,25.993,6.975,34.488v0.011  c8.495,8.495,21.508,10.619,34.499,6.954l-71.23,40.924c-2.059,1.186-3.957,1.887-5.649,2.178c0,0-0.022,0.011-0.022,0h-3.331  C16.108,502.827,14.544,497.523,18.609,490.429z"
   id="path2" />
<path
   style="fill:#FFA5B5;"
   d="M485.121,35.075c14.091,14.091,14.091,37.14,0,51.231l-14.619,14.63L419.26,49.694l14.63-14.619  C447.981,20.985,471.03,20.985,485.121,35.075z"
   id="path4" />
<path
   style="fill:#328777;"
   d="M470.502,100.936l-12.139,12.139l-3.967,3.967c-4.496,4.485-11.837,4.485-16.322,0l-34.919-34.919  c-4.485-4.485-4.485-11.827,0-16.322l3.967-3.967l12.139-12.139L470.502,100.936z"
   id="path6" />
<polygon
   style="fill:#4BCDB2;"
   points="446.234,125.204 131.636,439.802 80.394,388.56 394.992,73.962 403.153,82.123   438.073,117.043 "
   id="polygon8" />
<path
   style="fill:#57EECF;"
   d="M131.636,439.802l-6.296,6.296c-7.256,7.256-15.794,12.161-24.343,14.565l7.698-4.42l-44.741-44.741  l-4.431,7.708c2.404-8.549,7.32-17.099,14.576-24.354l6.296-6.296L131.636,439.802z"
   id="path10" />
<path
   style="fill:#328777;"
   d="M108.694,456.243l-7.698,4.42c-12.991,3.665-26.004,1.542-34.499-6.954v-0.011  c-8.495-8.495-10.63-21.497-6.975-34.488l4.431-7.708L108.694,456.243z"
   id="path12" />
<g
   id="g30">
	<g
   id="g22">
		
			<line
   style="fill:none;stroke:#266659;stroke-width:15;stroke-linecap:round;stroke-linejoin:round;stroke-miterlimit:10;"
   x1="20.765"
   y1="503.76"
   x2="24.1"
   y2="503.76"
   id="line14" />
		
			<line
   style="fill:none;stroke:#266659;stroke-width:15;stroke-linecap:round;stroke-linejoin:round;stroke-miterlimit:10;"
   x1="348.7"
   y1="503.76"
   x2="409.17"
   y2="503.76"
   id="line16" />
		
			<line
   style="fill:none;stroke:#266659;stroke-width:15;stroke-linecap:round;stroke-linejoin:round;stroke-miterlimit:10;"
   x1="437.1"
   y1="503.76"
   x2="467.33"
   y2="503.76"
   id="line18" />
		<path
   style="fill:none;stroke:#266659;stroke-width:15;stroke-linecap:round;stroke-linejoin:round;stroke-miterlimit:10;"
   d="    M24.096,503.765c0,0.011,0.022,0,0.022,0"
   id="path20" />
	</g>
	<g
   id="g28">
		
			<line
   style="fill:none;stroke:#3EAC92;stroke-width:15;stroke-linecap:round;stroke-linejoin:round;stroke-miterlimit:10;"
   x1="401.08"
   y1="119.11"
   x2="226.38"
   y2="293.82"
   id="line24" />
		
			<line
   style="fill:none;stroke:#3EAC92;stroke-width:15;stroke-linecap:round;stroke-linejoin:round;stroke-miterlimit:10;"
   x1="200.1"
   y1="320.08"
   x2="165.94"
   y2="354.26"
   id="line26" />
	</g>
</g>

<g
   id="g48">
	<path
   style="fill:#50000F;"
   d="M409.172,495.683h-60.479c-4.467,0-8.086,3.619-8.086,8.086s3.619,8.086,8.086,8.086h60.479   c4.467,0,8.086-3.619,8.086-8.086S413.638,495.683,409.172,495.683z"
   id="path38" />
	<path
   style="fill:#50000F;"
   d="M467.337,495.683h-30.239c-4.467,0-8.086,3.619-8.086,8.086s3.619,8.086,8.086,8.086h30.239   c4.467,0,8.086-3.619,8.086-8.086C475.422,499.302,471.802,495.683,467.337,495.683z"
   id="path40" />
	<path
   style="fill:#50000F;"
   d="M490.842,29.353c-17.282-17.28-45.395-17.278-62.676,0l-26.751,26.752   c-0.003,0.003-0.006,0.005-0.01,0.009l-12.133,12.134l0,0l0,0L74.688,382.833c-0.003,0.003-0.008,0.006-0.011,0.01   c-0.003,0.003-0.006,0.008-0.01,0.011l-6.283,6.283c-7.958,7.96-13.43,17.299-16.293,26.783L11.6,486.398   c-5.658,9.849-3.409,17.625,0.583,21.616C14.459,510.29,17.965,512,22.385,512c0.703,0,1.435-0.054,2.183-0.146H319.69   c4.467,0,8.086-3.619,8.086-8.086s-3.619-8.086-8.086-8.086H56.275l48.037-27.598c9.472-2.867,18.8-8.324,26.749-16.272   l329.04-329.04c0.003-0.003,0.008-0.006,0.011-0.01l30.732-30.732C508.122,74.75,508.122,46.633,490.842,29.353z M131.635,428.365   l-39.803-39.804L394.992,85.4l2.445,2.445l34.916,34.916l2.444,2.444L131.635,428.365z M452.657,107.344   c-0.003,0.003-0.008,0.006-0.011,0.01l-3.977,3.977c-1.326,1.323-3.561,1.32-4.883-0.004L408.871,76.41   c-1.325-1.325-1.325-3.563,0-4.889l3.972-3.972l6.416-6.416l39.804,39.804L452.657,107.344z M46.099,482.879l-8.846-8.671   l15.504-26.987c1.825,4.523,4.481,8.662,8.018,12.2c3.536,3.536,7.674,6.195,12.194,8.02L46.099,482.879z M72.21,447.986   c-5.476-5.476-7.267-13.766-5.761-22.554l28.316,28.316C85.978,455.254,77.686,453.462,72.21,447.986z M111.117,447.228   L72.969,409.08c1.914-2.984,4.198-5.855,6.851-8.508l0.576-0.576L120.2,439.8l-0.576,0.576   C116.971,443.03,114.101,445.314,111.117,447.228z M479.407,80.593l-8.909,8.909l-39.804-39.804l8.909-8.909   c5.486-5.487,12.693-8.231,19.903-8.231c7.208,0,14.415,2.744,19.902,8.231C490.382,51.763,490.382,69.619,479.407,80.593z"
   id="path42" />
	<path
   style="fill:#50000F;"
   d="M395.361,113.4L220.657,288.103c-3.158,3.159-3.158,8.278,0,11.435   c1.579,1.578,3.649,2.368,5.718,2.368s4.139-0.789,5.718-2.368l174.703-174.703c3.158-3.159,3.158-8.278,0-11.435   C403.639,110.243,398.52,110.243,395.361,113.4z"
   id="path44" />
	<path
   style="fill:#50000F;"
   d="M194.387,314.373l-34.166,34.166c-3.158,3.159-3.158,8.278,0,11.435   c1.579,1.578,3.649,2.367,5.718,2.367s4.139-0.789,5.718-2.367l34.166-34.166c3.158-3.159,3.158-8.278,0-11.435   C202.665,311.217,197.546,311.217,194.387,314.373z"
   id="path46" />
</g>
<g
   id="g50">
</g>
<g
   id="g52">
</g>
<g
   id="g54">
</g>
<g
   id="g56">
</g>
<g
   id="g58">
</g>
<g
   id="g60">
</g>
<g
   id="g62">
</g>
<g
   id="g64">
</g>
<g
   id="g66">
</g>
<g
   id="g68">
</g>
<g
   id="g70">
</g>
<g
   id="g72">
</g>
<g
   id="g74">
</g>
<g
   id="g76">
</g>
<g
   id="g78">
</g>
</svg>
